<?xml version="1.0" standalone="no"?>
<!DOCTYPE svg PUBLIC "-//W3C//DTD SVG 20010904//EN"
 "http://www.w3.org/TR/2001/REC-SVG-20010904/DTD/svg10.dtd">
<svg version="1.0" xmlns="http://www.w3.org/2000/svg"
 width="5333.000000pt" height="1784.000000pt" viewBox="0 0 5333.000000 1784.000000"
 preserveAspectRatio="xMidYMid meet">

<g transform="translate(0.000000,1784.000000) scale(0.100000,-0.100000)"
fill="#000000" stroke="none">
<path d="M0 16390 l0 -1450 421 0 c383 0 430 -2 520 -20 550 -112 1017 -474
1259 -978 148 -306 210 -413 334 -580 305 -409 707 -710 1337 -1000 382 -177
413 -196 556 -346 296 -309 518 -858 588 -1456 27 -224 43 -321 70 -415 80
-277 229 -543 439 -783 238 -273 580 -486 915 -570 92 -23 126 -26 261 -26
126 1 170 5 232 22 211 58 357 148 538 331 182 184 315 383 465 694 167 348
300 734 459 1339 74 279 95 337 160 437 189 292 577 456 997 420 266 -23 501
-120 757 -313 328 -248 599 -596 863 -1111 118 -231 217 -458 444 -1015 290
-714 394 -936 585 -1255 211 -350 383 -595 878 -1248 368 -485 503 -672 585
-811 174 -294 309 -667 401 -1111 57 -278 102 -627 161 -1265 60 -647 92 -892
160 -1235 272 -1360 734 -2252 1309 -2530 147 -71 247 -96 411 -102 230 -9
441 43 683 166 499 255 795 589 1015 1146 73 184 126 358 253 825 186 681 293
955 485 1235 140 205 259 321 512 499 379 266 657 532 917 877 325 432 565
893 936 1798 288 702 416 995 561 1285 269 538 641 1112 995 1536 504 603 997
955 1452 1035 114 19 301 19 406 -1 415 -78 835 -440 1108 -954 229 -431 368
-974 467 -1825 42 -357 63 -492 106 -659 88 -349 249 -611 493 -800 348 -271
759 -369 1152 -276 371 87 716 358 926 728 180 315 254 577 428 1497 131 697
258 1060 474 1352 98 133 257 280 401 370 82 52 253 129 370 167 425 138 723
101 985 -125 182 -156 328 -398 593 -979 235 -517 447 -855 697 -1114 161
-167 291 -266 458 -350 359 -180 783 -165 1217 44 411 198 690 526 885 1041
57 150 96 278 190 627 109 406 158 539 250 678 80 123 225 233 365 277 57 18
93 22 195 22 157 -1 241 -23 418 -110 228 -113 406 -245 801 -593 275 -242
328 -285 460 -373 239 -159 503 -256 828 -303 147 -22 312 -34 678 -51 345
-16 457 -26 590 -51 269 -51 468 -159 590 -318 102 -132 169 -333 206 -611 19
-146 14 -544 -11 -885 -31 -414 -32 -741 -2 -936 49 -318 154 -592 303 -795
64 -87 207 -223 296 -282 243 -161 567 -241 850 -208 281 33 517 145 700 334
158 162 252 344 316 607 69 283 88 577 107 1715 17 1017 43 1368 141 1910 85
468 153 684 270 856 88 131 222 233 374 285 108 38 261 40 379 6 231 -66 418
-196 771 -532 299 -285 501 -440 698 -534 588 -282 1332 -163 1860 299 156
136 269 283 406 528 160 286 262 535 497 1214 182 529 272 751 411 1025 135
266 250 426 431 600 224 215 426 346 962 623 627 325 795 439 1105 750 254
255 364 338 605 454 150 73 300 123 465 156 115 23 142 25 434 25 l311 0 0
1450 0 1450 -26665 0 -26665 0 0 -1450z m2527 -2005 c27 -19 83 -162 83 -213
0 -70 -65 -122 -153 -122 -52 0 -87 30 -87 75 0 75 55 228 93 257 27 22 37 22
64 3z m521 -658 c339 -270 522 -395 901 -614 335 -193 599 -366 778 -509 129
-104 218 -196 278 -289 79 -122 109 -221 107 -356 0 -68 -22 -115 -73 -160
-19 -16 -24 -17 -49 -4 -15 8 -35 26 -45 41 -37 57 -203 230 -300 313 -192
165 -390 295 -695 455 -301 158 -561 351 -770 572 -88 93 -171 208 -228 314
-83 157 -130 370 -81 370 6 0 85 -60 177 -133z m46282 -669 c0 -19 -73 -134
-99 -155 -8 -7 -12 -13 -8 -13 8 0 -26 -41 -91 -110 -41 -43 -153 -206 -258
-374 -72 -116 -75 -120 -149 -261 -92 -176 -119 -226 -133 -250 -6 -11 -27
-54 -46 -95 -18 -42 -46 -90 -60 -107 -14 -17 -26 -34 -26 -38 0 -14 -26 -32
-57 -38 -32 -6 -32 -6 -39 40 -10 66 19 248 58 363 56 165 205 444 348 647 93
133 262 323 287 323 5 0 24 13 44 29 20 17 49 33 65 37 16 4 35 11 42 17 39
31 122 21 122 -15z m-24880 -1818 c55 -15 139 -57 244 -122 164 -102 191 -135
195 -240 6 -156 -108 -122 -475 143 -84 60 -184 160 -184 184 0 46 112 64 220
35z m6774 -794 c82 -25 191 -94 215 -136 25 -44 27 -68 6 -76 -8 -4 -12 -11
-8 -17 8 -13 -47 -3 -90 18 -48 22 -208 146 -231 178 -18 24 -19 29 -6 37 21
14 60 12 114 -4z m-5795 -160 c233 -175 507 -544 662 -891 125 -279 164 -376
214 -535 49 -154 64 -352 31 -406 l-19 -32 -35 20 c-20 11 -63 47 -96 80 -34
33 -73 69 -88 80 l-27 19 -6 -24 c-10 -38 -13 -60 -14 -89 -1 -16 -6 -28 -12
-28 -22 0 -59 124 -120 400 -71 324 -151 542 -303 835 -40 77 -96 177 -124
223 -28 45 -49 82 -46 82 2 0 -11 25 -31 55 -19 31 -35 59 -35 64 0 5 -15 31
-34 58 -42 61 -51 118 -21 131 26 12 40 7 104 -42z m-13489 -171 c56 -29 170
-200 380 -570 157 -277 230 -411 230 -425 0 -7 7 -10 16 -6 8 3 13 2 10 -3 -8
-13 17 -71 31 -71 7 0 13 -7 13 -15 0 -8 5 -15 11 -15 5 0 7 -5 4 -10 -3 -6 1
-13 9 -16 9 -3 16 -10 16 -16 0 -12 26 -38 32 -32 3 3 8 -10 12 -28 5 -26 9
-30 16 -18 8 12 15 9 8 -4 -2 -2 9 -14 25 -26 15 -12 27 -27 27 -33 0 -7 -4
-6 -10 3 -5 8 -12 12 -15 9 -7 -8 27 -69 38 -69 5 0 5 6 1 13 -5 9 -3 9 7 -1
11 -10 11 -15 2 -20 -9 -6 -6 -11 8 -21 17 -10 20 -10 13 1 -6 10 -4 10 9 -1
9 -7 15 -17 12 -21 -3 -5 -1 -11 5 -15 15 -9 12 -28 -2 -19 -7 4 -5 -2 5 -13
9 -11 17 -25 17 -31 0 -7 12 -22 26 -35 27 -23 60 -76 56 -91 -2 -4 3 -14 9
-22 6 -8 8 -14 3 -14 -5 0 -1 -7 9 -14 19 -14 97 -131 97 -145 0 -4 11 -25 25
-45 14 -21 27 -45 28 -54 1 -10 15 -34 30 -53 15 -20 27 -43 27 -51 0 -9 6
-18 13 -21 6 -2 23 -32 36 -66 13 -33 28 -61 33 -61 4 0 8 -12 9 -27 0 -16 3
-22 6 -15 6 15 44 -51 41 -70 -2 -7 3 -12 11 -13 8 0 16 -6 19 -14 3 -8 0 -11
-6 -7 -6 4 -8 -2 -5 -15 3 -12 11 -18 19 -15 8 3 18 -4 24 -14 9 -16 7 -20 -6
-20 -10 0 -14 -3 -10 -7 4 -5 13 -8 19 -8 7 0 12 -7 13 -15 1 -31 15 -59 28
-54 7 3 16 -2 19 -10 4 -10 1 -13 -8 -10 -10 4 -12 0 -8 -17 4 -13 8 -18 11
-11 2 6 9 12 15 12 5 0 7 -3 4 -7 -4 -3 -2 -12 4 -20 9 -10 8 -13 -3 -13 -10
0 -15 -11 -15 -37 0 -21 2 -28 4 -15 2 12 9 22 14 22 6 0 7 6 3 13 -5 7 -1 6
10 -3 11 -8 14 -16 7 -18 -15 -5 -14 -28 1 -55 7 -12 13 -31 13 -42 0 -11 6
-19 13 -17 17 3 26 -23 14 -44 -6 -11 -11 -13 -16 -5 -4 6 -2 11 3 11 6 0 11
6 11 13 0 18 -40 16 -41 -3 0 -9 -5 -5 -12 10 -7 14 -20 33 -29 42 -10 10 -18
25 -18 34 0 8 -3 13 -8 10 -4 -2 -83 109 -175 248 -181 270 -216 309 -263 287
-22 -10 -31 -7 -82 30 -81 59 -124 107 -216 243 -193 283 -472 821 -606 1165
-12 30 -29 73 -39 95 -42 92 -114 328 -131 426 -22 130 -20 136 40 105z
m-6367 -134 c65 -15 183 -30 277 -36 142 -9 209 -46 231 -128 13 -50 5 -136
-18 -180 -54 -105 -167 -187 -258 -187 -90 0 -299 168 -355 286 -37 76 -48
150 -30 194 24 57 64 70 153 51z m26364 -177 c62 -36 135 -121 357 -419 357
-478 503 -697 585 -880 17 -38 35 -77 40 -85 34 -62 39 -223 8 -254 -34 -34
-126 -11 -202 51 -164 134 -366 389 -514 648 -146 254 -332 669 -371 824 -24
93 -24 96 -4 127 19 28 34 26 101 -12z m13908 -94 c195 -50 397 -96 655 -150
107 -22 201 -47 209 -55 12 -12 12 -18 -3 -40 -28 -43 -98 -67 -211 -72 -236
-12 -427 57 -710 257 -126 89 -159 118 -117 106 9 -3 89 -23 177 -46z m-7882
-151 c42 -16 114 -43 160 -60 110 -41 322 -103 482 -140 177 -41 336 -79 357
-85 23 -7 13 -29 -20 -44 -86 -39 -359 -42 -572 -6 -165 28 -211 41 -330 98
-138 65 -222 135 -247 205 -29 79 18 88 170 32z m-31635 -134 c28 -57 46 -147
36 -178 -18 -61 -87 -96 -176 -88 -23 1 -48 51 -48 93 0 41 47 187 69 212 43
49 83 36 119 -39z m34491 -1012 c84 -43 80 -72 -14 -91 -31 -6 -75 -25 -100
-42 l-44 -30 -15 22 c-20 28 -30 80 -22 113 15 58 109 71 195 28z m79 -515
c80 -75 181 -274 217 -430 37 -162 9 -410 -52 -458 -92 -72 -158 31 -228 355
-14 66 -35 158 -45 205 -17 78 -25 125 -35 206 -5 47 13 127 33 142 24 18 79
8 110 -20z m-7537 -15 c16 -41 4 -136 -23 -191 -24 -49 -45 -60 -93 -48 -32 8
-125 83 -125 101 0 8 21 29 48 46 26 18 69 52 97 76 58 50 81 54 96 16z
m-6979 -240 c19 -21 78 -96 129 -168 51 -71 118 -161 149 -198 119 -148 149
-210 164 -342 5 -48 -10 -141 -32 -195 -26 -67 -113 -109 -185 -89 -52 14 -98
37 -115 58 -53 64 -171 368 -193 501 -18 101 -18 417 -1 448 18 32 43 27 84
-15z m-12802 -293 c0 -5 -4 -10 -10 -10 -5 0 -10 5 -10 10 0 6 5 10 10 10 6 0
10 -4 10 -10z m20 -30 c0 -5 -4 -10 -10 -10 -5 0 -10 5 -10 10 0 6 5 10 10 10
6 0 10 -4 10 -10z m13486 -817 c32 -43 4 -226 -41 -273 -31 -32 -57 -34 -109
-10 -51 23 -140 105 -131 121 4 6 33 27 64 46 31 20 80 58 109 85 57 51 86 59
108 31z m14256 -755 c149 -24 238 -132 255 -311 7 -72 -18 -173 -53 -210 -27
-29 -69 -35 -107 -16 -42 22 -126 99 -175 162 -132 166 -166 319 -84 369 32
21 69 22 164 6z m-26875 -385 c94 -146 270 -537 294 -651 31 -153 38 -236 24
-314 -16 -96 -72 -215 -120 -257 -35 -30 -68 -40 -79 -23 -9 15 -25 134 -31
237 -9 140 -21 237 -60 490 -32 209 -56 381 -71 508 -4 34 -2 57 3 57 5 0 23
-21 40 -47z m27155 -350 c13 -12 18 -30 18 -67 -1 -54 -11 -75 -48 -95 -20
-11 -28 -9 -58 14 -67 52 -67 102 0 144 39 24 64 26 88 4z m-26901 -2086 c31
-39 53 -77 113 -189 134 -254 217 -365 433 -584 143 -144 250 -282 268 -344 4
-14 13 -34 19 -45 19 -30 36 -133 32 -190 -2 -31 -18 -80 -40 -127 -79 -167
-214 -258 -323 -217 -49 18 -142 119 -193 210 -38 67 -100 190 -128 254 -76
174 -192 631 -228 900 -4 28 -8 59 -10 70 -10 51 -6 253 5 273 16 29 21 28 52
-11z m1055 -1913 c31 -14 74 -43 96 -65 34 -32 39 -42 34 -66 -10 -40 -38 -75
-77 -97 l-35 -19 -56 26 c-76 34 -148 101 -148 137 0 34 34 78 74 96 43 18 50
18 112 -12z"/>
</g>
</svg>
