<?xml version="1.0" standalone="no"?>
<!DOCTYPE svg PUBLIC "-//W3C//DTD SVG 20010904//EN"
 "http://www.w3.org/TR/2001/REC-SVG-20010904/DTD/svg10.dtd">
<svg version="1.0" xmlns="http://www.w3.org/2000/svg"
 width="1439.000000pt" height="803.000000pt" viewBox="0 0 1439.000000 803.000000"
 preserveAspectRatio="xMidYMid meet">

<g transform="translate(0.000000,803.000000) scale(0.100000,-0.100000)"
fill="#000000" stroke="none">
<path d="M9184 8014 c-57 -28 -84 -137 -49 -203 29 -57 149 -128 290 -171 173
-53 330 -202 393 -372 26 -71 44 -203 36 -277 -6 -62 -71 -256 -114 -341 -83
-164 -261 -296 -452 -334 -42 -9 -128 -16 -190 -16 -151 0 -238 -22 -426 -106
-29 -13 -54 -24 -56 -24 -2 0 -82 -38 -177 -84 -96 -46 -205 -93 -243 -105
-163 -50 -360 -48 -461 6 -171 90 -185 95 -263 100 -57 4 -94 1 -142 -12 -106
-30 -156 -30 -233 -1 -37 14 -71 25 -75 25 -25 -4 -42 3 -42 19 0 11 -29 39
-72 70 -40 29 -109 82 -153 118 -81 66 -239 166 -351 222 -80 40 -114 80 -114
135 0 37 6 46 65 103 54 52 65 68 66 96 0 18 2 45 4 60 5 35 -26 73 -70 88
-93 31 -173 -57 -215 -235 -20 -85 -48 -154 -77 -187 -9 -10 -34 -27 -57 -38
-75 -36 -180 -124 -232 -194 -59 -78 -116 -120 -187 -137 -169 -40 -316 76
-367 291 -8 35 -12 98 -9 175 9 310 7 344 -27 415 -67 141 -163 187 -228 109
-53 -63 -40 -148 35 -235 46 -53 62 -106 53 -175 -16 -121 -137 -224 -379
-321 -111 -44 -181 -81 -270 -143 -129 -89 -296 -187 -342 -201 -73 -23 -134
-11 -223 41 -153 90 -201 144 -293 332 -25 51 -59 112 -76 135 -68 95 -81 345
-26 498 14 41 28 91 29 111 6 66 58 142 210 299 35 36 161 90 226 96 59 6 125
26 189 57 38 19 46 58 23 111 -28 63 -83 97 -166 103 -57 5 -72 2 -130 -25
-76 -36 -185 -136 -340 -312 -281 -320 -510 -500 -860 -673 -233 -115 -347
-196 -521 -371 -209 -211 -247 -226 -556 -226 -114 0 -232 -5 -261 -11 -218
-46 -328 -210 -373 -554 -24 -187 -83 -288 -219 -376 -130 -85 -267 -119 -503
-126 l-183 -5 0 -2619 0 -2619 7195 0 7195 0 0 2619 0 2619 -26 6 c-14 4 -47
28 -73 54 -51 51 -68 92 -115 265 -27 99 -45 144 -106 252 -62 112 -99 161
-187 245 l-88 85 -61 0 c-111 0 -148 -43 -165 -193 -19 -175 -45 -222 -121
-222 -140 0 -259 144 -357 435 -53 159 -59 209 -32 263 24 47 27 109 8 137
-18 24 -56 14 -103 -28 -49 -42 -74 -99 -74 -168 l0 -56 -67 17 c-38 10 -107
27 -155 39 -48 11 -131 41 -185 67 -85 40 -108 58 -192 143 -90 90 -250 262
-318 341 -45 52 -88 123 -114 188 -25 65 -54 102 -81 102 -20 0 -45 -34 -48
-65 -5 -43 1 -62 29 -92 28 -31 49 -69 32 -59 -5 3 -11 -4 -15 -17 -3 -13 -23
-31 -48 -45 -66 -34 -119 -90 -192 -200 -93 -142 -164 -195 -258 -196 -79 0
-161 47 -720 414 -260 171 -327 225 -563 463 -99 99 -195 175 -295 233 -107
61 -168 115 -287 250 -101 115 -167 149 -229 118z m-4 -98 c0 -18 7 -50 15
-69 20 -47 19 -57 -3 -57 -42 0 -73 79 -53 133 15 39 41 35 41 -7z m-5260 -51
c0 -23 -191 -137 -206 -123 -11 12 42 73 92 107 52 34 114 43 114 16z m-280
-197 c0 -16 -31 -48 -47 -48 -16 0 -16 2 -1 35 11 25 48 35 48 13z m6322 -392
l22 -29 -30 7 c-16 4 -30 8 -30 9 -5 7 -44 101 -44 106 1 7 48 -47 82 -93z
m-4921 -76 c24 -14 25 -36 0 -43 -10 -2 -25 -17 -32 -33 -17 -34 -32 -40 -53
-19 -52 52 18 130 85 95z m6749 -13 c0 -2 -8 -19 -17 -37 -16 -33 -17 -33 -26
-12 -7 15 -6 26 3 37 11 13 40 22 40 12z m-5492 -216 c-6 -16 -90 -103 -95
-98 -17 18 53 107 84 107 8 0 13 -4 11 -9z m-3548 -92 c-53 -47 -313 -218
-349 -230 -37 -13 -50 -6 -35 19 20 32 168 132 277 187 123 62 161 71 107 24z
m9091 0 c22 -11 17 -29 -10 -29 -9 0 -57 -20 -106 -45 -50 -25 -93 -45 -97
-45 -17 0 -6 23 30 61 53 57 136 83 183 58z m-6808 -281 c-24 -42 -106 -105
-151 -117 -54 -15 -122 -24 -122 -18 0 3 32 23 71 43 39 21 100 59 136 86 71
52 93 54 66 6z m-2783 -38 c0 -14 -46 -60 -60 -60 -16 0 -12 12 17 42 28 29
43 35 43 18z m1180 -65 c18 -41 55 -110 81 -152 51 -81 59 -103 35 -103 -58 0
-166 197 -166 302 0 47 16 32 50 -47z m9600 61 c0 -14 -40 -95 -50 -101 -13
-8 -30 11 -30 32 0 17 50 73 66 73 8 0 14 -2 14 -4z m-7054 -91 c-11 -8 -22
-12 -25 -9 -6 6 19 24 34 24 6 -1 1 -7 -9 -15z m6964 -85 c0 -16 -4 -30 -9
-30 -13 0 -21 27 -15 45 10 25 24 17 24 -15z m-6573 -64 c72 -33 123 -80 105
-98 -9 -9 -33 -5 -103 17 -97 29 -170 35 -279 22 l-65 -8 39 35 c79 72 189 83
303 32z m6268 -23 c122 -36 175 -63 175 -89 0 -8 -2 -14 -5 -14 -11 0 -212 83
-266 110 -55 28 -82 51 -41 35 9 -3 71 -22 137 -42z m-11207 -29 c40 -11 18
-27 -89 -64 -124 -43 -133 -48 -205 -106 -56 -46 -84 -51 -84 -15 0 30 60 102
113 135 72 44 197 68 265 50z m7736 -83 c17 -7 16 -9 -10 -30 -22 -17 -24 -21
-9 -17 11 2 52 8 90 12 39 4 72 8 75 9 3 1 37 5 75 9 39 4 81 9 95 11 50 9
-68 -44 -141 -64 -109 -29 -215 -41 -355 -41 -131 0 -194 14 -194 44 0 22 42
47 103 62 57 13 240 17 271 5z m4616 -99 c20 -12 22 -17 10 -24 -8 -5 -42 -24
-74 -44 -33 -19 -66 -32 -73 -30 -23 9 -20 61 5 90 34 38 80 40 132 8z
m-11835 -52 c4 -6 -11 -10 -37 -9 -33 0 -38 2 -23 9 28 12 53 12 60 0z m-625
-242 c0 -13 -11 -45 -24 -73 -26 -57 -118 -174 -123 -158 -7 19 56 185 82 220
30 39 65 45 65 11z m626 -702 c17 -2 77 -27 133 -56 74 -37 120 -54 169 -61
37 -5 73 -11 80 -14 13 -5 17 -31 4 -39 -44 -27 -418 -63 -481 -46 -60 16 -75
65 -44 142 30 77 43 91 77 84 17 -4 45 -8 62 -10z m5989 -55 c27 -6 28 -7 10
-15 -26 -12 -501 -20 -610 -11 -89 7 -112 21 -47 28 64 6 615 5 647 -2z
m-4827 -62 c64 -31 53 -41 -35 -34 -61 5 -88 3 -123 -10 -99 -36 -107 -37
-152 -17 -24 10 -49 26 -57 35 -11 15 -10 18 15 28 40 16 177 28 249 22 33 -2
79 -13 103 -24z"/>
</g>
</svg>
